<svg xmlns="http://www.w3.org/2000/svg" width="96" height="96" viewBox="0 0 96 96"><rect width="96" height="96" rx="24" fill="#080b12" stroke="#39a9ff"/><path d="M25 37 18 21l18 9c9-5 15-5 24 0l18-9-7 16c4 7 5 17 2 25-4 10-14 16-29 16S29 72 25 62c-3-8-2-18 0-25Z" fill="none" stroke="#58b7ff" stroke-width="4"/><circle cx="37" cy="50" r="3" fill="#58b7ff"/><circle cx="59" cy="50" r="3" fill="#58b7ff"/><path d="M43 62q5 5 10 0M31 59l-10-3M65 59l10-3" fill="none" stroke="#58b7ff" stroke-width="3" stroke-linecap="round"/></svg>