<svg xmlns="http://www.w3.org/2000/svg" viewBox="0 0 96 96"><defs><linearGradient id="g" x1="0" y1="0" x2="1" y2="1"><stop stop-color="#fff"/><stop offset="1" stop-color="#777"/></linearGradient></defs><rect x="3" y="3" width="90" height="90" rx="24" fill="#08090b" stroke="#777" stroke-width="2"/><path d="M25 39 20 21l18 11c7-4 13-5 20-5s13 1 20 5l18-11-5 18c4 6 6 13 5 20-2 15-15 25-38 25S27 74 25 59c-1-7 1-14 5-20Z" fill="none" stroke="url(#g)" stroke-width="3.5" stroke-linejoin="round"/><circle cx="39" cy="51" r="3" fill="#fff"/><circle cx="57" cy="51" r="3" fill="#fff"/><path d="M43 63q5 5 10 0M31 60l-10-3M65 60l10-3" fill="none" stroke="#888" stroke-width="2.5" stroke-linecap="round"/></svg>